<svg width="393" height="852" viewBox="0 0 393 852" fill="none" xmlns="http://www.w3.org/2000/svg">
  <!-- Definitions -->
  <defs>
    <radialGradient id="bgGradient" cx="0" cy="0" r="1" gradientUnits="userSpaceOnUse" gradientTransform="translate(196.5 426) rotate(90) scale(426 196.5)">
      <stop offset="0" stop-color="#121424"/>
      <stop offset="1" stop-color="#050505"/>
    </radialGradient>
  </defs>

  <!-- Background -->
  <rect width="393" height="852" fill="#050505"/>
  <rect width="393" height="852" fill="url(#bgGradient)" opacity="0.6"/>

  <!-- Nav Bar -->
  <text x="20" y="60" fill="white" font-family="system-ui" font-size="34" font-weight="700">Media &amp; Links</text>

  <!-- Tabs -->
  <g transform="translate(20, 90)">
     <text x="0" y="20" fill="white" font-family="system-ui" font-size="15" font-weight="600">Photos (12)</text>
     <text x="100" y="20" fill="rgba(255,255,255,0.6)" font-family="system-ui" font-size="15" font-weight="500">Links 15</text>
     <rect x="0" y="30" width="80" height="2" fill="#007AFF"/>
  </g>

  <!-- Media Grid -->
  <g transform="translate(16, 140)">
     <!-- Photo 1 -->
     <rect x="0" y="0" width="175" height="120" rx="12" fill="gray"/>
     <image href="https://via.placeholder.com/175x120" x="0" y="0" width="175" height="120" rx="12" />
     <!-- Placeholder Gradient for explicit SVG -->
     <defs>
        <linearGradient id="photo1" x1="0" y1="0" x2="1" y2="1"><stop offset="0" stop-color="#FF5F6D"/><stop offset="1" stop-color="#FFC371"/></linearGradient>
     </defs>
     <rect x="0" y="0" width="175" height="120" rx="12" fill="url(#photo1)"/>

     <!-- Photo 2 -->
     <rect x="186" y="0" width="175" height="120" rx="12" fill="url(#photo1)"/>
  </g>
  
  <!-- Links Section Title -->
  <text x="36" y="300" fill="white" font-family="system-ui" font-size="17" font-weight="600">Links</text>

  <!-- Link Item -->
  <g transform="translate(16, 320)">
     <rect width="361" height="100" rx="20" fill="rgba(255,255,255,0.05)" stroke="rgba(255,255,255,0.1)" stroke-width="1"/>
     <!-- Icon -->
     <rect x="16" y="16" width="40" height="40" rx="10" fill="#333"/>
     <text x="26" y="42" fill="white" font-size="20">🔗</text>
     
     <text x="68" y="30" fill="white" font-family="system-ui" font-size="15" font-weight="600">https://www.openai.com</text>
     <text x="68" y="50" fill="rgba(255,255,255,0.5)" font-family="system-ui" font-size="13">Yesterday, 7:01 AM</text>
  </g>

  <!-- Member List (Anya) -->
   <g transform="translate(16, 440)">
     <rect width="361" height="70" rx="20" fill="rgba(255,255,255,0.02)" stroke="rgba(255,255,255,0.08)" stroke-width="1"/>
     <circle cx="35" cy="35" r="20" fill="purple"/>
     <text x="68" y="30" fill="white" font-family="system-ui" font-size="17" font-weight="600">Anya Sharma</text>
     <text x="68" y="50" fill="rgba(255,255,255,0.5)" font-family="system-ui" font-size="13">Yesterday, 9:22 AM</text>
     <text x="310" y="40" fill="rgba(255,255,255,0.3)" font-size="13">593.2K</text>
  </g>

  <!-- Home Indicator -->
  <rect x="120" y="838" width="153" height="5" rx="2.5" fill="white" opacity="0.3"/>
</svg>
